{"asset":{"version":"2.0","generator":"elyra-zen-house-generator"},"scenes":[{"nodes":[0,1,2,3,4,5,6,7,8,9,10,11,12,13,14,15,16,17,18,19,20,21,22,23,24,25,26,27,28,29,30,31,32,33,34]}],"scene":0,"nodes":[{"name":"Floor","mesh":1,"translation":[0.8,0.05,0.2],"scale":[12.8,0.14,7.2]},{"name":"LivingRoom","mesh":0,"translation":[-3.5,0.18,-1.4],"scale":[3.8,0.22,2.6]},{"name":"Hall","mesh":0,"translation":[0,0.18,-1.4],"scale":[3.2,0.22,2.6]},{"name":"Kitchen","mesh":0,"translation":[3.5,0.18,-1.4],"scale":[3.8,0.22,2.6]},{"name":"DiningArea","mesh":0,"translation":[-2.7,0.18,1.8],"scale":[4.2,0.22,2.2]},{"name":"Staircase","mesh":0,"translation":[0.8,0.18,1.8],"scale":[2.2,0.22,2.2]},{"name":"Bathroom","mesh":0,"translation":[3.2,0.18,1.8],"scale":[1.7,0.22,2.2]},{"name":"MasterBedroom","mesh":0,"translation":[5.5,0.18,1.8],"scale":[2.3,0.22,2.2]},{"name":"ParkingArea","mesh":0,"translation":[0.8,0.14,-5.5],"scale":[4.8,0.18,1.8]},{"name":"FrontWall","mesh":2,"translation":[0.8,1.35,-3.5],"scale":[12.8,2.2,0.2]},{"name":"BackWall","mesh":2,"translation":[0.8,1.35,3.8],"scale":[12.8,2.2,0.2]},{"name":"LeftWall","mesh":2,"translation":[-5.5,1.35,0.15],"scale":[0.2,2.2,7.1]},{"name":"RightWall","mesh":2,"translation":[7.1,1.35,0.15],"scale":[0.2,2.2,7.1]},{"name":"InnerWallA","mesh":2,"translation":[-1.7,1.2,0.2],"scale":[0.16,1.9,6]},{"name":"InnerWallB","mesh":2,"translation":[2,1.2,0.2],"scale":[0.16,1.9,6]},{"name":"InnerWallC","mesh":2,"translation":[4.8,1.2,0.9],"scale":[0.16,1.9,4.4]},{"name":"RoofLeft","mesh":3,"translation":[-1,2.5,0.15],"scale":[6.7,0.16,7.3],"rotation":[0,0,-0.20845989984609956,0.9780309147241483]},{"name":"RoofRight","mesh":3,"translation":[2.6,2.5,0.15],"scale":[6.7,0.16,7.3],"rotation":[0,0,0.20845989984609956,0.9780309147241483]},{"name":"RoofRidge","mesh":3,"translation":[0.8,3.55,0.15],"scale":[0.26,0.26,7]},{"name":"FrontDeck","mesh":4,"translation":[0.8,0.1,-4.2],"scale":[5,0.12,1.2]},{"name":"GardenLeft","mesh":4,"translation":[-4,0.06,-4.2],"scale":[2.2,0.08,1.2]},{"name":"GardenRight","mesh":4,"translation":[5.4,0.06,-4.2],"scale":[2.2,0.08,1.2]},{"name":"BedroomBedBase","mesh":5,"translation":[5.45,0.42,2],"scale":[1.5,0.28,1.1]},{"name":"BedroomBedMattress","mesh":5,"translation":[5.45,0.58,2],"scale":[1.45,0.18,1.05]},{"name":"BedroomLampStand","mesh":5,"translation":[6.2,0.65,1.2],"scale":[0.12,0.75,0.12]},{"name":"BedroomLampShade","mesh":5,"translation":[6.2,1.15,1.2],"scale":[0.35,0.3,0.35]},{"name":"KitchenShelfBase","mesh":5,"translation":[3.5,0.85,-2.4],"scale":[2.2,0.18,0.4]},{"name":"KitchenShelfUpper1","mesh":5,"translation":[3.5,1.35,-2.35],"scale":[2.2,0.14,0.34]},{"name":"KitchenShelfUpper2","mesh":5,"translation":[3.5,1.85,-2.3],"scale":[2.2,0.14,0.3]},{"name":"KitchenShelfUpper3","mesh":5,"translation":[3.5,2.25,-2.25],"scale":[2.2,0.12,0.26]},{"name":"DiningTable","mesh":5,"translation":[-2.7,0.5,1.8],"scale":[1.4,0.35,0.9]},{"name":"DiningBenchA","mesh":5,"translation":[-2.7,0.42,0.95],"scale":[1.2,0.24,0.35]},{"name":"DiningBenchB","mesh":5,"translation":[-2.7,0.42,2.65],"scale":[1.2,0.24,0.35]},{"name":"ParkingLampPost","mesh":5,"translation":[-1.4,1.25,-5.5],"scale":[0.18,2.1,0.18]},{"name":"ParkingLamp","mesh":6,"translation":[-1.4,2.45,-5.5],"scale":[0.45,0.28,0.45]}],"meshes":[{"name":"RoomMesh","primitives":[{"attributes":{"POSITION":0},"indices":1,"material":0}]},{"name":"FloorMesh","primitives":[{"attributes":{"POSITION":0},"indices":1,"material":1}]},{"name":"WallMesh","primitives":[{"attributes":{"POSITION":0},"indices":1,"material":2}]},{"name":"RoofMesh","primitives":[{"attributes":{"POSITION":0},"indices":1,"material":3}]},{"name":"DecorMesh","primitives":[{"attributes":{"POSITION":0},"indices":1,"material":4}]},{"name":"FurnitureMesh","primitives":[{"attributes":{"POSITION":0},"indices":1,"material":5}]},{"name":"LampMesh","primitives":[{"attributes":{"POSITION":0},"indices":1,"material":6}]}],"materials":[{"name":"RoomMaterial","pbrMetallicRoughness":{"baseColorFactor":[0.92,0.93,0.95,1],"metallicFactor":0.03,"roughnessFactor":0.86}},{"name":"FloorMaterial","pbrMetallicRoughness":{"baseColorFactor":[0.96,0.96,0.97,1],"metallicFactor":0,"roughnessFactor":1}},{"name":"WallMaterial","pbrMetallicRoughness":{"baseColorFactor":[0.97,0.97,0.98,1],"metallicFactor":0.04,"roughnessFactor":0.82}},{"name":"RoofMaterial","pbrMetallicRoughness":{"baseColorFactor":[0.28,0.31,0.36,1],"metallicFactor":0.08,"roughnessFactor":0.72}},{"name":"DecorMaterial","pbrMetallicRoughness":{"baseColorFactor":[0.74,0.83,0.74,1],"metallicFactor":0,"roughnessFactor":1}},{"name":"FurnitureMaterial","pbrMetallicRoughness":{"baseColorFactor":[0.72,0.64,0.54,1],"metallicFactor":0.02,"roughnessFactor":0.78}},{"name":"LampMaterial","pbrMetallicRoughness":{"baseColorFactor":[0.98,0.9,0.6,1],"metallicFactor":0,"roughnessFactor":0.5},"emissiveFactor":[0.22,0.18,0.06]}],"buffers":[{"uri":"smart-house.bin","byteLength":168}],"bufferViews":[{"buffer":0,"byteOffset":0,"byteLength":96,"target":34962},{"buffer":0,"byteOffset":96,"byteLength":72,"target":34963}],"accessors":[{"bufferView":0,"byteOffset":0,"componentType":5126,"count":8,"type":"VEC3","min":[-0.5,-0.5,-0.5],"max":[0.5,0.5,0.5]},{"bufferView":1,"byteOffset":0,"componentType":5123,"count":36,"type":"SCALAR"}]}